<svg class="main-svg" xmlns="http://www.w3.org/2000/svg" xmlns:xlink="http://www.w3.org/1999/xlink" width="900" height="500" style="" viewBox="0 0 900 500"><rect x="0" y="0" width="900" height="500" style="fill: rgb(255, 255, 255); fill-opacity: 1;"/><defs id="defs-4449b1"><g class="clips"><clipPath id="clip4449b1geo"><rect x="89.99670681533638" y="60.00000000000003" width="720.0065863693271" height="360"/></clipPath></g><g class="gradients"/><g class="patterns"/></defs><g class="bglayer"/><g class="layer-below"><g class="imagelayer"/><g class="shapelayer"/></g><g class="cartesianlayer"/><g class="polarlayer"/><g class="smithlayer"/><g class="ternarylayer"/><g class="geolayer"><g class="geo geo" clip-path="url(#clip4449b1geo)"><g class="layer bg"><rect x="89.99670681533638" y="60.00000000000003" width="720.0065863693271" height="360" style="pointer-events: all; fill: rgb(255, 255, 255); fill-opacity: 1;"/></g><g class="layer backplot"><g class="choroplethlayer"><g class="trace choropleth"><path class="choroplethlocation" fill="rgb(100, 149, 237)" d="M593.4146385515361,238.35828751421877L599.6326716537392,235.36006907562205L599.8334708220341,236.75132045595092L602.0925331793396,238.60154136381016L602.9244154479898,238.04217225213188L596.8643682628413,250.44137746635852L596.0112586535428,257.68463375068404L595.1913526210017,259.07803655067255L595.2539589331167,260.9222334834835L561.5066467136511,264.93993798510746L562.4196375034932,254.71388176975142L567.5720724479497,246.3503095543183L566.8155615813995,241.86438442062354L593.397857478186,238.63460151259005Z" style="stroke: rgb(68, 68, 68); stroke-opacity: 1; stroke-width: 1px; opacity: 1;"/><path class="choroplethlocation" fill="rgb(100, 149, 237)" d="M401.9486873130646,206.18380649441042L400.5080967085265,215.4757880072525L403.112246779344,222.0471559316661L403.99153199450893,233.56126709764476L410.7157224287937,233.29664247942765L416.6178554108749,238.90417439602606L417.2696638539574,249.4941073899281L388.51529466813025,249.50350192244468L383.7168399717838,242.0138363730257L383.4811878049919,224.63101094368767L385.12587642130256,220.77645576630357L385.73264847949775,213.50264932280106L384.50232328976,197.85300757180266L386.2335706904045,197.79922208029484L387.2019963934939,197.20722310376868L388.29434386901767,196.21506007042626L390.2271792918321,193.72550895351424L391.0804323291084,192.85669398069558L392.06040398437574,192.44211541215554L392.9279281053977,204.3155853753933Z" style="stroke: rgb(68, 68, 68); stroke-opacity: 1; stroke-width: 1px; opacity: 1;"/><path class="choroplethlocation" fill="rgb(100, 149, 237)" d="M177.3680846632334,294.28659300341496L176.330956958991,294.28092759831L176.3319609548319,294.2855890075739L166.5726193777836,294.2809993122992L166.518977314253,284.8019160029994L166.5376946652986,283.40593149941833L166.54500949214338,282.54801705287855L166.5333918259774,281.78469335740374L166.53281811406845,281.3275883935785L166.53970265698126,281.04546556212426L166.5168258945933,276.78371835703274L166.530308124464,276.18849225101667L166.53124040631775,274.86135317656453L169.6956918706657,273.79632873072705L174.89258948810158,271.5789322008427L178.5762502304691,269.71365135536143L181.99915891000893,268.1520075379376L184.52800929271643,266.7925971685813L187.1244142527563,265.22076996476517L188.6491253660127,264.7283817185112L190.39995068556578,263.4932516915319L192.09677537164532,261.7075016594936L193.78312981537766,260.76015986907396L195.20399907303016,259.77739136824766L195.93125063220052,259.1516868170438L196.62494004467067,259.09833160946846L197.14034848128995,259.19464349626105L197.40181768400447,259.14049943480995L198.00450204484352,258.7303671335676L198.3873830303897,258.36541464519223L200.8526231051395,257.55189115764324L202.1965432529423,256.69627155874196L203.7552467968299,256.07967468409925L205.16758208982895,255.7691531131286L207.3163483325506,255.06678630802935L210.5082662545618,254.50806262224887L211.23645009558498,253.7342686844272L211.36869069070494,253.3591328096595L216.81522470272435,255.64250620912617L216.78022827624952,294.2672302264723L182.55974715949526,294.31972486618406L181.63176814601883,294.30975662175797Z" style="stroke: rgb(68, 68, 68); stroke-opacity: 1; stroke-width: 1px; opacity: 1;"/><path class="choroplethlocation" fill="rgb(100, 149, 237)" d="M369.8308603443112,294.0940409438185L369.1137204575441,294.0940409438185L368.7192218058338,294.10121234268627L367.06255695341144,294.12272653928903L367.0595449658879,294.12272653928903L367.1097447579612,274.2421028843414L383.68399496496863,273.15025740673855L390.2570123111219,277.45302501335254L391.90306349321827,273.92957332168817L396.0411040678425,273.9917493498706L397.70859773255404,274.0083152812558L396.32631060080985,294.20340477655054L396.29088389040396,294.2029744926185L377.80588616909336,294.0941126578077L376.42890587251213,294.08694125893953L370.2826584729745,294.0868695449508L370.20377308542936,294.0940409438185Z" style="stroke: rgb(68, 68, 68); stroke-opacity: 1; stroke-width: 1px; opacity: 1;"/><path class="choroplethlocation" fill="rgb(100, 149, 237)" d="M584.79052941524,288.56460556088905L585.375787276831,286.32375855670807L586.1495812146533,285.08540140023797L594.839380364576,275.01353026053675L595.2539589331167,260.9222334834835L626.1766005665843,257.6398125077608L622.0085835446931,268.98955521169273L615.0168282186569,288.0282566395754L615.8245428731223,290.6516977733477L613.6592824130063,295.7932321915241L600.4740918828827,293.8205237910056Z" style="stroke: rgb(68, 68, 68); stroke-opacity: 1; stroke-width: 1px; opacity: 1;"/><path class="choroplethlocation" fill="rgb(100, 149, 237)" d="M583.0922704493877,323.61847494005633L583.5171758322958,318.05949339379185L583.8685743768126,316.8690411817588L583.7968603881352,316.424414451963L583.6319182141798,316.04433031197595L583.56737562437,315.7716020130388L583.728516956927,314.6788242535831L583.969045674949,313.38374133207026L583.969045674949,313.14708516943665L582.4530119543231,301.3123407600847L584.79052941524,288.56460556088905L600.4740918828827,293.8205237910056L613.6592824130063,295.7932321915241L615.8245428731223,290.6516977733477L616.5104871748157,290.6543511909281L615.2461695544458,306.81531368119204L615.2415798591696,306.8520312433948L614.8713205356321,311.5196796243963L614.3476649903143,318.1202351422012L614.0619564594261,321.72149651157997L613.4444990169197,328.1208942911462L584.4929880762209,330.91164416050106L581.0714419624658,334.45245063742504L579.7359840653282,333.1871290212125L579.9151973230312,330.9881629864185Z" style="stroke: rgb(68, 68, 68); stroke-opacity: 1; stroke-width: 1px; opacity: 1;"/><path class="choroplethlocation" fill="rgb(100, 149, 237)" d="M573.0391883747186,140.9171922556866L559.5297071877994,142.14084804447702L541.365557851829,143.66849943126908L542.0449044665636,138.54912463559276L533.7125278362038,82.46986120023166L528.0876411343463,82.4418927446477L527.7525216652598,78.64793588769453L529.399218273255,78.83389026033365L558.8529422766572,79.64167662878799L569.2151116425216,79.68169303446939L577.7793395982721,79.37583287276402L580.720330273904,100.02888789974804L582.1713911207892,99.93243258497796L586.220434635465,119.970683587037L569.6016500414893,121.57930006704419L570.5958927805032,127.10536489250626Z" style="stroke: rgb(68, 68, 68); stroke-opacity: 1; stroke-width: 1px; opacity: 1;"/><path class="choroplethlocation" fill="rgb(100, 149, 237)" d="M259.58516069356256,232.0050018293714L259.62058740396844,227.92705757725844L259.5802841423324,216.13885554655735L259.5905392427136,215.93726752438715L259.5045541702906,213.27631997453773L263.4222176577103,213.1311708614562L293.08211937855776,212.96350355592995L299.6336225281078,212.9219094424975L296.3986044989021,219.66424351591604L299.3540814002464,223.37773727757394L296.1174856632882,232.3425595740723Z" style="stroke: rgb(68, 68, 68); stroke-opacity: 1; stroke-width: 1px; opacity: 1;"/><path class="choroplethlocation" fill="rgb(100, 149, 237)" d="M541.365557851829,143.66849943126908L559.5297071877994,142.14084804447702L561.3850915028434,152.95209040743566L555.5885932260818,156.14866973871176L564.4160115202754,164.3490209159163L576.3687254410017,165.39116859936667L575.655673251589,169.10810463248117L564.3521143563655,170.24190279345976L568.2623195889626,195.85605984311087L569.6932288050293,204.28625435402455L563.9019656494419,206.62240924915704L556.3378609797754,205.17149183025003L541.4013431321787,206.14106495715896L528.6392651352473,201.9796456222266L517.5166406334554,198.1298235680947L524.1211404206372,187.5985526169302L518.4877197541272,145.7597510550704Z" style="stroke: rgb(68, 68, 68); stroke-opacity: 1; stroke-width: 1px; opacity: 1;"/><path class="choroplethlocation" fill="rgb(100, 149, 237)" d="M589.1442139538149,387.7900882856752L589.3514673810907,388.7390077838454L590.0949263017022,390.03817840271313L589.7485477363936,390.694146257139L590.5114411479367,395.42626551396006L584.1471115088331,397.0404039710961L583.7196961363195,396.85717473002705L583.3258429105072,396.5239198246463L582.6567513961536,396.57275705093525L580.3643420341139,396.7399940725295L579.5962852153857,396.7204161536206L579.0961518583547,396.5609959567919L578.8815836042331,396.4403730278382L578.8117341792623,396.17926239506596L579.2219381944929,395.7886362987442L579.2883453480083,395.70609349777715L579.6296322201199,395.2817618267768L579.5084355792569,394.91817190418624L578.9601821358234,394.5570919711986L577.3874943641433,394.2966267643251L576.9045723643935,393.68612557871984L576.7021954883487,392.83179683161416L576.9945017061948,391.9549498920642L577.1714918302489,391.6894647059826L577.4441484151974,391.2804798285597L578.4333711750041,390.38118641055325L578.2759589698586,388.96476342020014L578.1006899815332,388.78569359047424L578.3562786371766,388.9089699370097L579.1616267300163,388.4021671790306L579.4607457767872,388.22775875856905L580.1275424435031,387.1457380974148L581.9062645046513,386.7934789850351L582.4226052231244,385.8109973401638L582.5016340386447,385.73003224694776L582.4118481248223,384.74052263118665L582.5270925046252,384.78233188658487L582.9900780155217,384.6244893975081L583.5399808806958,384.75185344139754L584.2373994205773,385.2965928993858L584.819430152677,385.44511256993565L585.2036737040062,386.00397968369316L585.3752135649213,386.796562686548L586.0504007683126,387.1951490356132L586.5977936438823,387.75272529757467L587.1663421461112,388.70107108383536L587.6627463757318,388.57679074145926L588.7781857556095,387.85886200081677Z" style="stroke: rgb(68, 68, 68); stroke-opacity: 1; stroke-width: 1px; opacity: 1;"/><path class="choroplethlocation" fill="rgb(100, 149, 237)" d="M495.82695990014884,143.8327961793275L500.12972750676346,178.37957594456157L469.7703275403619,192.3977244531652L453.79868998020453,188.76670177848519L452.4834554278745,173.09748210857788L451.608114482086,165.9665299305202L447.03455485422853,165.7107978468989L447.74983017728994,159.1066566296604L453.6592779862177,159.47892394488053L464.73815695491726,152.83978630116826L469.0963594747792,153.09566181276614L473.28230499383824,145.466942839304L468.8820780766126,143.40114968148237L476.03640901497954,135.17720460200235Z" style="stroke: rgb(68, 68, 68); stroke-opacity: 1; stroke-width: 1px; opacity: 1;"/><path class="choroplethlocation" fill="rgb(100, 149, 237)" d="M293.2039614453196,196.30348341846457L293.2579620787932,196.30592169407964L294.5774994704444,196.0262371382405L295.3806961436244,196.10512252578474L296.26284991833586,196.43493515970886L298.4286840903617,196.90107608610788L299.712364487675,196.90107608610788L301.82799886762666,197.4245882034479L306.04492482979424,197.86204353437597L307.418391140931,198.1276004344454L308.29681578823204,198.17034197169733L310.08256582027104,198.03408539321117L310.31922198290476,198.30659855018257L312.2053715990903,198.82293926865532L313.3887241262452,199.29625159392162L314.2994917824396,200.39347562067496L317.2447852973926,202.2051861166151L317.7180976226591,202.45718907282526L319.54278835054936,203.0438812141888L321.41839601039976,204.07326380765517L323.20679946001934,205.05474145668404L325.08577767733806,205.59259637176L326.29329781867676,205.6782228742395L328.6787919380193,204.54557213707994L330.41986415511303,204.24731365817343L333.27486975832176,203.44562297875655L334.8751674156412,203.19017775108932L336.5605178635336,202.68100843148477L336.96405247781735,202.64629886096554L337.6345782719455,202.5885691000808L337.75555977084247,211.55769423590073L337.9615940603106,220.011912933021L329.79050219048565,220.02137917952587L329.9985444716365,226.57603774457766L322.98061353973367,226.5187382676254L312.0800155468841,226.42393237459464L312.1819211247934,223.33399174448095L299.3540814002464,223.37773727757394L296.3986044989021,219.66424351591604L299.6336225281078,212.9219094424975L293.08211937855776,212.96350355592995L293.19449519881425,202.06426812886548L293.1986546101575,201.88605886700407Z" style="stroke: rgb(68, 68, 68); stroke-opacity: 1; stroke-width: 1px; opacity: 1;"/><path class="choroplethlocation" fill="rgb(100, 149, 237)" d="M576.8134955987753,387.43388490391817L576.8738787772398,387.3936533562701L576.918126308254,387.40971728973363L577.0187410343675,387.51434799921344L576.6284017939996,388.18236380373673L576.5559706654371,388.27093057975253L576.4191403750419,388.2185793680187L576.3507252298439,388.12599660863725L576.378908827394,388.0777330942574ZM582.4118481248223,384.74052263118665L582.5016340386447,385.73003224694776L582.4226052231244,385.8109973401638L581.9062645046513,386.7934789850351L580.1275424435031,387.1457380974148L579.4607457767872,388.22775875856905L579.1616267300163,388.4021671790306L578.3562786371766,388.9089699370097L578.1006899815332,388.78569359047424L578.0238842996596,388.7073102008503L577.9632859792281,388.3740552954696L578.1860296280582,387.90812951103726L578.4177375254728,387.7680720911512L578.5389341663358,387.3136205449073L578.3434418332038,386.9413532296858L577.9836527520125,386.7655822434399L578.7552235561851,383.38319196750217L579.0851079040978,382.8811940467649L579.6788280163523,381.9570158746883L580.2436473911699,381.077945801489L580.6857641313629,380.3896349381703L583.452704956477,376.08285134819016L584.1841876409786,374.9139133327594L584.5193071100653,374.3849509522802L585.8250754158909,374.8506615947472L586.0972300029184,374.58553497860885L586.4056001542288,374.800748658628L586.4131301230394,375.0031255346735L586.0182729013861,380.5448240096671L586.1584737492487,380.91716303887597L585.7450426045277,381.2317723072015L584.9092877804884,381.93736624179155L584.3994013209972,381.76123668560103L584.1613825925787,382.09198160137794L584.1845462109225,382.23935384810875L584.3915127822426,382.2971553229818L584.2949857534834,382.43412904135494L583.9860418902651,382.60882431777145L583.763226527446,382.82145629419756L582.9765957856509,383.7483595978447L582.7342025039242,384.1627230244185L582.5015623246567,384.35276509441155Z" style="stroke: rgb(68, 68, 68); stroke-opacity: 1; stroke-width: 1px; opacity: 1;"/><path class="choroplethlocation" fill="rgb(100, 149, 237)" d="M400.5080967085265,215.4757880072525L401.9486873130646,206.18380649441042L417.7453427408505,205.4703240210656L421.761828104667,203.02222358960853L436.7894944318737,209.34947709656672L436.9298387077134,209.35851305914002L436.9779587941159,209.52582179472302L437.05641389772825,209.62091454370784L436.8439253492783,210.03269626668998L436.89426856932954,210.0969520005442L437.03088371775874,210.19921614839723L437.144263533857,210.1211196147283L437.28288667396885,210.19598901890686L437.5586986744189,210.04832991622152L437.787466298298,210.25866704501004L437.67774389562214,210.47337872710796L437.87058281117453,210.47323529913047L437.8123510523696,210.57679029878L437.902065252204,210.6966243738584L438.1530642125723,210.7981713818249L438.1352074293923,210.88838757958L437.98295863143096,211.00657223291955L437.9602970110089,211.19467802521876L438.2589857738478,211.32032093338012L438.37860470696097,211.41032198916946L438.22750333281834,211.79858152386532L438.27340028557137,212.06765240938012L438.3393054411649,212.18425935496862L438.2772728409597,212.24535967332122L437.96775526583156,212.40607072194598L437.92824085807047,212.47513129304116L437.98095063974733,212.61038387568533L437.9401453801904,212.72240112599866L438.0654297184095,212.73487936002812L438.19200490842354,212.6507588513109L438.08579649119304,212.53623161139376L438.2988587515519,212.4260072107977L438.47290860206965,212.55839123389524L438.5230366801549,212.69213782277757L438.65950840060617,212.83169324474238L438.8685546775997,212.80953362224045L438.90025226059515,212.90484151319197L439.0644055806765,212.8946581268001L439.1513946489405,212.97361522833307L439.3862579618566,212.89422784286853L439.31368340531617,212.81283246572048L439.3902022312348,212.72569996947777L439.55700896889584,212.8898532895587L439.6572651250663,212.7857962919893L439.8802239158625,212.8047287849995L439.89671813325765,212.86346254172577L439.6664445156168,212.93610881225504L439.8808693417604,212.994340571061L439.7278316899241,213.12672459415853L439.5721406205062,213.32171492937005L439.41644955109024,213.40648086398596L439.2680015945291,213.31404153258154L439.26914901834795,213.52782093282713L439.1488846593369,213.68150401056118L439.3034283049359,213.62707309315556L439.3987361958864,213.75293114328315L439.22633576710837,213.90819192876825L439.3901305172449,213.87713977167095L439.4747530238841,213.9292041274507L439.3696203164844,214.02393830649225L439.48242642067186,214.01533262785142L439.58590970633276,214.11981990935283L439.47152589439366,214.16478458025358L439.4695179027101,214.2423791160022L439.20561042438004,214.2200760655228L438.9320932715676,214.06918983334754L438.94170294605,213.96305313010635L438.84761419290544,213.90797678680246L438.7831433170856,213.9265507098694L438.7949044112285,214.12957301181314L438.52447095992864,214.5754188794167L438.3434648525082,214.66993791649202L438.44214330092797,214.78604286415975L438.321592085962,214.78926999365012L438.25289008480996,214.87123908270814L438.35787936423264,214.97630007611906L438.1696301439564,215.07318567482116L438.0084888114004,215.11083551887668L438.06263287285105,215.3046067162809L438.01637735015413,215.43706245336716L438.1283946004676,215.54965341558955L438.0477163632066,215.715527871399L438.0664337142504,215.95419202571475L442.2544589389829,216.34854724944762L443.7683412399474,237.49090682117367L416.6178554108749,238.90417439602606L410.7157224287937,233.29664247942765L403.99153199450893,233.56126709764476L403.112246779344,222.0471559316661Z" style="stroke: rgb(68, 68, 68); stroke-opacity: 1; stroke-width: 1px; opacity: 1;"/><path class="choroplethlocation" fill="rgb(100, 149, 237)" d="M583.0922704493877,323.61847494005633L579.9151973230312,330.9881629864185L579.7359840653282,333.1871290212125L581.0714419624658,334.45245063742504L581.0787567893105,342.6430487121693L568.1411946620877,351.8869101386099L562.9287351091104,355.68136899348383L553.5205052206229,351.3414535407346L551.6248176439422,350.466973162811L546.9285553814591,348.1268739983011L529.9086744488142,340.2958498627813L530.2777863485329,339.9993125196029L530.180111895955,339.5858096608922L525.7745064295792,335.34077181516295L525.5315394359425,335.32026161440217L525.7861958097332,330.51979892637064L545.6372015873579,329.76027607229616L553.4207510623743,323.5467609513794L560.8045667645054,320.551913070251L570.6795830052895,324.15152501789044Z" style="stroke: rgb(68, 68, 68); stroke-opacity: 1; stroke-width: 1px; opacity: 1;"/><path class="choroplethlocation" fill="rgb(100, 149, 237)" d="M604.1506529403723,235.48191114238443L602.361604064854,230.2165983797513L605.8861314663491,226.71042975935825L631.7870010427291,226.54104131810345L631.7799013578503,226.62494668485533L631.7746662366764,226.77705205483835L631.4729654863138,234.44693485780226L630.9914060523497,234.39795420353585L630.5929631312621,236.7052083612316L631.6344653888137,240.71409204224938L632.4565945550045,240.71975744735482L629.4412364731137,248.84402008257348L626.1766005665843,257.6398125077608L595.2539589331167,260.9222334834835L595.1913526210017,259.07803655067255L596.0112586535428,257.68463375068404L596.8643682628413,250.44137746635852L602.9244154479898,238.04217225213188L603.1609998966336,237.54024604538336L603.2404589960878,237.14474339783146L604.0288108736105,236.6294066752007Z" style="stroke: rgb(68, 68, 68); stroke-opacity: 1; stroke-width: 1px; opacity: 1;"/><path class="choroplethlocation" fill="rgb(100, 149, 237)" d="M583.4753665768981,349.9286162498147L584.6574282522562,351.2271414427837L586.2495505148688,354.13865766906974L587.2463749574744,354.88448315130745L587.8345013786119,356.3833055146515L587.2823036658011,360.0191330265716L587.2952121837628,360.9126176114951L587.6767306035233,363.2318480053L587.3469179695988,366.12909314783974L586.7229345541225,366.12192174897154L586.0631658582973,365.83506579426466L576.7999416549146,361.69078610262613L576.7995830849708,361.69064267464864L573.111189219351,360.0549900209103L572.8028190680408,359.9187334424246L564.441900270188,356.330739160951L562.9287351091104,355.68136899348383L568.1411946620877,351.8869101386099L581.0787567893105,342.6430487121693L580.9927000028985,342.8581906782001Z" style="stroke: rgb(68, 68, 68); stroke-opacity: 1; stroke-width: 1px; opacity: 1;"/><path class="choroplethlocation" fill="rgb(100, 149, 237)" d="M547.9381449140502,268.7544050428223L535.3603001540297,263.779462220341L528.7134891135283,257.0806585380492L534.5186647829203,249.27279802087105L531.873781166533,240.37768172136657L533.251693744968,234.72317714218525L547.1202468731926,238.78068290752435L560.8604319616846,237.09145990424486L560.2163686293788,242.9909394687461L566.8155615813995,241.86438442062354L567.5720724479497,246.3503095543183L562.4196375034932,254.71388176975142L561.5066467136511,264.93993798510746L562.195889858822,267.16651390554216Z" style="stroke: rgb(68, 68, 68); stroke-opacity: 1; stroke-width: 1px; opacity: 1;"/><path class="choroplethlocation" fill="rgb(100, 149, 237)" d="M372.08899041976304,255.37831187484153L386.35584304109733,255.0015982923219L386.7322697676617,273.82530118215254L391.90306349321827,273.92957332168817L390.2570123111219,277.45302501335254L383.68399496496863,273.15025740673855L367.1097447579612,274.2421028843414L357.4549621764046,274.68235506082783L356.91380841784985,259.5209421447403L372.5042861281906,261.0066408481557Z" style="stroke: rgb(68, 68, 68); stroke-opacity: 1; stroke-width: 1px; opacity: 1;"/><path class="choroplethlocation" fill="rgb(100, 149, 237)" d="M367.0595449658879,294.12272653928903L364.06132652729116,294.1553564041369L364.05422684241324,294.153276698466L355.65953075589425,294.2574771240129L328.36411095570605,294.209070181656L320.85422206148,294.2485845894166L310.82121990364135,294.30143779907166L312.75513103628657,260.42131127257653L317.276482880388,252.59064570699957L329.39815495843595,252.81446506565953L338.3182277259995,252.8804419352423L354.28965014419094,252.8445132269153L356.91380841784985,259.5209421447403L357.4549621764046,274.68235506082783L367.1097447579612,274.2421028843414Z" style="stroke: rgb(68, 68, 68); stroke-opacity: 1; stroke-width: 1px; opacity: 1;"/><path class="choroplethlocation" fill="rgb(100, 149, 237)" d="M504.438734230392,322.40536110760104L504.22337712239556,321.569247713619L504.57319795916067,320.604049140019L504.197990370404,311.9605772267805L501.51818204153267,307.6969654579839L499.8257319087615,305.4313771277093L497.97249901337824,304.8221667939006L497.5275137136397,304.9067175865507L508.22681054027333,300.05985594784624L523.7571202141146,293.03977359628243L547.2081682233103,303.13566892219023L538.5020182839676,312.482655064347L551.4116119556063,319.68144867569345L553.4207510623743,323.5467609513794L545.6372015873579,329.76027607229616L525.7861958097332,330.51979892637064L525.5315394359425,335.32026161440217L522.4324194152782,335.05872069769794L516.870569309466,334.34968449165126L515.7785804038862,333.739039878069L514.303495370795,331.8205472529894L512.3497911772744,331.2636164169262L509.1609569567757,329.61935808454655L505.12604109786935,325.0734800563182Z" style="stroke: rgb(68, 68, 68); stroke-opacity: 1; stroke-width: 1px; opacity: 1;"/><path class="choroplethlocation" fill="rgb(100, 149, 237)" d="M583.8685743768126,316.8690411817588L583.5171758322958,318.05949339379185L583.0922704493877,323.61847494005633L570.6795830052895,324.15152501789044L560.8045667645054,320.551913070251L553.4207510623743,323.5467609513794L551.4116119556063,319.68144867569345L538.5020182839676,312.482655064347L547.2081682233103,303.13566892219023L523.7571202141146,293.03977359628243L547.3495882089798,282.07829042704634L557.6865859648194,286.0138824116357L574.3797379650522,287.2873077085683L576.7035580541325,281.99503048619226L586.1495812146533,285.08540140023797L585.375787276831,286.32375855670807L584.79052941524,288.56460556088905L582.4530119543231,301.3123407600847L583.969045674949,313.14708516943665L583.969045674949,313.38374133207026L583.728516956927,314.6788242535831L583.56737562437,315.7716020130388L583.6319182141798,316.04433031197595L583.7968603881352,316.424414451963Z" style="stroke: rgb(68, 68, 68); stroke-opacity: 1; stroke-width: 1px; opacity: 1;"/><path class="choroplethlocation" fill="rgb(100, 149, 237)" d="M589.1604930292449,167.796455779584L615.923221321542,165.17774776906526L620.0383851337782,164.864501066525L616.1103948319883,175.36228158497715L606.3539218144866,187.61906281769234L608.7907631497221,200.54715869840948L591.5183772629454,204.30224657349936L588.0525836181779,193.95499371727965L568.2623195889626,195.85605984311087L564.3521143563655,170.24190279345976L575.655673251589,169.10810463248117Z" style="stroke: rgb(68, 68, 68); stroke-opacity: 1; stroke-width: 1px; opacity: 1;"/><path class="choroplethlocation" fill="rgb(100, 149, 237)" d="M632.132805896129,220.29948602761397L631.7870010427291,226.54104131810345L605.8861314663491,226.71042975935825L610.3410761569352,215.28961849264806L608.7907631497221,200.54715869840948L606.3539218144866,187.61906281769234L616.1103948319883,175.36228158497715L620.0383851337782,164.864501066525L620.1969447627426,164.85381568221192L620.3885645404854,164.83610232700903L624.2557413798778,164.52091934677446L624.2581079415044,164.52715846378942L625.8165963434269,166.13771122149137L626.3269130868501,167.17720548735997L625.5896932832544,168.48024866161632L624.8716211146344,169.74937111922782L622.519904283959,173.37372439296087L622.1484258226128,174.1634388362686L621.222669942785,176.13148582752365L620.5325662297491,180.31183765546666L620.7185206023878,180.61956238087896L622.7509667554748,181.7028021798401L624.5223739897774,178.51432652928497L625.1718875852232,177.78915467578554L629.4964562443951,177.4624257433752L629.7605071507021,177.62808505721796L633.8451925177517,183.75640395958635L634.0999206055312,184.138496091256L633.739988096362,185.57320614872242L633.344055164878,195.89442682705248L633.3374574779201,195.9454871869907L633.3261266677091,196.43256859808298L633.3080547425623,197.06214570467546L633.1815512665372,199.9328566714048L632.872392261352,206.94906646757954Z" style="stroke: rgb(68, 68, 68); stroke-opacity: 1; stroke-width: 1px; opacity: 1;"/><path class="choroplethlocation" fill="rgb(100, 149, 237)" d="M337.75555977084247,211.55769423590073L337.6345782719455,202.5885691000808L340.1406953202411,202.37278170815216L342.0391797424804,202.34631924633095L342.80221658200054,202.55285553372005L345.6565767593105,202.60929444280828L349.25081015779944,202.12515330525184L352.1889322738838,202.311968245755L354.3168297458992,201.87795518628354L355.248179316844,202.01607632847436L356.5794060886492,201.85041701463115L359.7757702779595,202.35298864727793L362.172451779536,203.0499769032267L364.62392276846015,203.03290897392162L365.43041828511866,202.81461159238916L367.5849216469325,203.13696597149146L368.03155636841166,203.08769846127052L370.1702826527172,202.06118442735215L371.4656524301855,201.57281216446427L372.7116829834426,201.42400563795945L373.3941132996907,201.49320963703258L375.0020126398116,201.0975635615032L375.9558804032005,200.59872105626755L379.3240713093799,200.29515574219977L381.1659016805641,199.66263836207054L382.7405974439269,198.72856365955658L383.8900292544377,197.87201177880206L384.50232328976,197.85300757180266L385.73264847949775,213.50264932280106L385.12587642130256,220.77645576630357L367.1887735734834,221.55656053512848L355.0353321984511,221.60633004327065L354.96806447707365,219.6368487722416L337.9615940603106,220.011912933021Z" style="stroke: rgb(68, 68, 68); stroke-opacity: 1; stroke-width: 1px; opacity: 1;"/><path class="choroplethlocation" fill="rgb(100, 149, 237)" d="M259.616786562569,255.7515831859032L259.58516069356256,232.0050018293714L296.1174856632882,232.3425595740723L296.0192374988013,246.35776780914057L289.42778965755826,252.66974623651004L290.1439255484836,256.81366735820575L290.0019318509052,256.85339690793217L270.73969792031596,256.83554012475224L259.5726107455438,256.98262551552807Z" style="stroke: rgb(68, 68, 68); stroke-opacity: 1; stroke-width: 1px; opacity: 1;"/></g><g class="trace choropleth"><path class="choroplethlocation" fill="rgb(255, 250, 205)" d="M278.07123412470304,294.2148790147385L270.7906865662651,294.25604284423935L270.73969792031596,256.83554012475224L290.0019318509052,256.85339690793217L290.1439255484836,256.81366735820575L304.29739835372055,257.0829533856863L304.3454467261342,260.18035227062273L312.75513103628657,260.42131127257653L310.82121990364135,294.30143779907166L305.59556497674646,294.3182905864105L304.9335731472718,294.31994000814984L290.6672942378473,294.2576922659787L290.65194744427004,294.25604284423935L283.94288866159746,294.18167543798154Z" style="stroke: rgb(68, 68, 68); stroke-opacity: 1; stroke-width: 1px; opacity: 1;"/><path class="choroplethlocation" fill="rgb(255, 250, 205)" d="M595.9969158558073,376.00755166007957L596.1983604500002,375.9443716360556L596.5009217682266,376.1604458839379L596.5873371245825,376.3819703949607L596.5225076788188,377.0465439280283L596.263189895764,377.0681298386198L596.0200794741493,376.8196408678541L595.9713856758378,376.33872685978895ZM595.0931044565139,380.2090591146821L594.5596240947486,380.2794105375742L593.2976013220155,379.9067846524099L591.8958079853526,380.04411694072587L589.5897729654641,380.4662254780769L589.3027018687902,380.7260452590531L588.9954074273107,381.2046644194811L588.000375834421,381.2303380274275L587.638148477616,381.17461625822534L587.5902435331794,380.97761793133077L587.4741385855116,380.96076514399147L586.9288254156136,380.80701035226866L586.0182729013861,380.5448240096671L586.4131301230394,375.0031255346735L586.4056001542288,374.800748658628L586.0972300029184,374.58553497860885L585.8250754158909,374.8506615947472L584.5193071100653,374.3849509522802L584.5194505380423,374.3847358103144L584.9451447748271,373.4091387083563L585.5020038969021,372.13291656586534L585.6310890765196,371.838960926279L592.3620206257393,373.82622726650015L592.3971604801912,373.82629898048845L592.39285764087,373.7869997146936L592.4284994932418,373.77014692735474L592.4196069586463,373.73063251959366L593.6279159538609,374.04603064179446L593.7430886196757,374.0672579824427L595.2665805951235,374.45917493056095L595.1763643973682,374.6393204701162L595.1262363192839,375.3169459491228L594.8907275804689,376.0766839451635L594.9427919362479,376.3889266518622L595.1798783828127,376.5565939573885L595.3649004735994,376.8746454971697L595.3707093066814,377.071285254121L595.3591633545054,377.2331437265648L595.4343196146383,377.4818478392958L595.3359997361624,377.5743588846881L595.2434886907695,377.63216035956157L595.1336228601167,377.5454581472518L594.9312459840719,377.2563073449073L594.7287973940372,376.9324469720432L594.8386632246891,376.58549469482523L594.6420951817263,376.267443155044L594.5322293510744,376.2847979403032L594.2835969523317,376.5276932199522L594.1193002042734,376.8266688387448L593.5906963937365,376.72096241943564L593.167870716499,376.91917988413843L592.9696532517975,377.7516358646967L592.996115713618,378.04236437479267L593.2339193000714,378.4519946781138L593.7625231106065,378.94086893892336L594.2778598332377,379.1523534915309Z" style="stroke: rgb(68, 68, 68); stroke-opacity: 1; stroke-width: 1px; opacity: 1;"/><path class="choroplethlocation" fill="rgb(255, 250, 205)" d="M482.2428961650056,294.2538914245788L477.05209423660676,294.2597719716505L476.7469512147878,294.260489111537L473.81184108622796,294.25661655614886L473.381126870235,294.2672302264723L473.3389590448924,294.2683059363035L437.73210309903965,294.2832941599363L437.52900908310795,294.2832941599363L428.7255432611312,294.29598753593245L428.34789739675904,286.1508561300079L428.13799055190253,283.2118734460587L430.4973090653777,277.684374340824L426.97995306275124,264.7871871892262L446.0674200029349,264.4024416399752L447.5180505658873,275.5894653035998L462.2547732410308,276.3798251728058L462.340041173567,280.1848259840149L469.8222484681648,280.2125792976326L477.91653465611705,280.23574291597515L478.02310164329054,280.2275675212668L478.0142808226831,280.624002450671L477.99542004366043,280.724402034818L478.0038822943249,280.73028258189015L478.0218825054828,280.8181322180194L477.9939857638876,281.25522897900373L477.93396115536507,283.425724560293L477.7825012112804,291.1999512167813Z" style="stroke: rgb(68, 68, 68); stroke-opacity: 1; stroke-width: 1px; opacity: 1;"/><path class="choroplethlocation" fill="rgb(255, 250, 205)" d="M226.99308911768978,294.3603149837754L217.41073766469566,294.27296734556694L216.78022827624952,294.2672302264723L216.81522470272435,255.64250620912617L221.7688684705677,256.25953336770044L226.87892044771664,262.4766341880504L242.97935633153668,260.36939034477473L259.616786562569,255.7515831859032L259.5726107455438,256.98262551552807L270.73969792031596,256.83554012475224L270.7906865662651,294.25604284423935L250.09962312528253,294.2229109814707L230.15531744839,294.38914400722297Z" style="stroke: rgb(68, 68, 68); stroke-opacity: 1; stroke-width: 1px; opacity: 1;"/><path class="choroplethlocation" fill="rgb(255, 250, 205)" d="M469.8222484681648,280.2125792976326L462.340041173567,280.1848259840149L462.2547732410308,276.3798251728058L447.5180505658873,275.5894653035998L446.0674200029349,264.4024416399752L444.2163385272113,242.30434974115542L486.81122067168906,240.8512809025874L484.353869135693,253.47466404541774L479.0240137832503,259.8546990480413L481.14380757454603,264.7551310362878L478.24555843616577,271.68506890408435L478.02310164329054,280.2275675212668L477.91653465611705,280.23574291597515Z" style="stroke: rgb(68, 68, 68); stroke-opacity: 1; stroke-width: 1px; opacity: 1;"/><path class="choroplethlocation" fill="rgb(255, 250, 205)" d="M586.220434635465,119.970683587037L582.1713911207892,99.93243258497796L580.720330273904,100.02888789974804L577.7793395982721,79.37583287276402L588.7368784981317,78.98441792256608L606.6660210932082,78.78856701949007L626.8509272021108,78.29474449346208L626.3443395860982,79.48060701021996L625.6801246229757,85.11876079998365L624.9488570804381,91.32546309197596L627.0779736902622,94.92858902506032L625.258733225511,100.35009485503087L623.4726963375172,106.44155276721995L624.6087893461342,109.5179394534739L625.500696223306,110.40654748716724L625.8710272608325,110.77558767289747L627.1729230112697,111.5695332415371L618.1940447729904,112.22686366174821L615.8442642200088,115.92730547746669L601.206506849239,118.83243915876028Z" style="stroke: rgb(68, 68, 68); stroke-opacity: 1; stroke-width: 1px; opacity: 1;"/><path class="choroplethlocation" fill="rgb(255, 250, 205)" d="M426.97995306275124,264.7871871892262L418.1463673655307,264.98576322387225L417.2696638539574,249.4941073899281L416.6178554108749,238.90417439602606L443.7683412399474,237.49090682117367L444.2163385272113,242.30434974115542L446.0674200029349,264.4024416399752Z" style="stroke: rgb(68, 68, 68); stroke-opacity: 1; stroke-width: 1px; opacity: 1;"/><path class="choroplethlocation" fill="rgb(255, 250, 205)" d="M482.2428961650056,294.2538914245788L477.7825012112804,291.1999512167813L477.93396115536507,283.425724560293L477.9939857638876,281.25522897900373L478.0218825054828,280.8181322180194L478.0038822943249,280.73028258189015L477.99542004366043,280.724402034818L478.0142808226831,280.624002450671L478.02310164329054,280.2275675212668L478.24555843616577,271.68506890408435L493.8850885147601,268.5168883123247L509.8268930556277,260.6886610223628L528.7134891135283,257.0806585380492L535.3603001540297,263.779462220341L547.9381449140502,268.7544050428223L541.2110859202188,279.76917170564457L547.3495882089798,282.07829042704634L523.7571202141146,293.03977359628243L508.22681054027333,300.05985594784624L497.5275137136397,304.9067175865507L489.16860290746956,302.45338203391975L488.01479654365045,298.5945957312033L487.047016266458,297.5203201808258L483.5130226184585,294.6972990165673Z" style="stroke: rgb(68, 68, 68); stroke-opacity: 1; stroke-width: 1px; opacity: 1;"/><path class="choroplethlocation" fill="rgb(255, 250, 205)" d="M211.36869069070494,253.3591328096595L211.87750144036633,251.91545850360853L212.11910586821824,251.83564083421152L212.43034457907504,251.59919981354415L213.01897299813353,250.75584330670608L213.18764429950116,250.22774149409088L215.52552033036199,248.31297799642198L215.91994726808426,248.32014939529017L216.60130187450162,247.97592224964137L216.70880114352792,246.2834721168715L217.66984030578453,244.79182115239564L219.82125996608585,243.9025676928045L220.73202762228115,243.68742572677456L221.80780916641984,243.6300545358331L225.17843834821386,241.72246243703194L227.04307376779803,241.3423782970458L230.60015932015156,238.9758166707138L231.683112263158,237.99333502584295L231.83371163937971,237.43396591416467L231.46789858313946,236.82439701041267L231.2599280159767,236.79571141494216L230.95155786466646,235.90645795535056L230.80812988731338,234.9239763104797L231.18183148230827,234.3250210770516L231.25275661710987,233.87695207579964L230.81271958258858,233.0880982003555L230.3368972677194,233.02011333908968L229.59609176468754,232.01955976907266L228.94363789570806,230.758325850215L227.4517717892659,230.63555150160073L227.9322555133993,229.6745840533331L227.939355198279,227.99647671829734L227.68835623791068,227.28650823039834L226.99273054774682,226.31119798439477L226.82441781632215,226.19896559211566L226.02451998662153,225.66577208630406L223.14419934541013,224.88071905226025L220.34455694146064,223.55745253319765L219.74208772258666,222.87616964076824L219.14047907157837,217.70265078364173L220.480741805957,217.51181985977337L225.09926610471464,217.69841965831029L233.45086208403913,220.33871357942098L240.2779620920741,216.46042107178437L259.5802841423324,216.13885554655735L259.62058740396844,227.92705757725844L259.58516069356256,232.0050018293714L259.616786562569,255.7515831859032L242.97935633153668,260.36939034477473L226.87892044771664,262.4766341880504L221.7688684705677,256.25953336770044L216.81522470272435,255.64250620912617Z" style="stroke: rgb(68, 68, 68); stroke-opacity: 1; stroke-width: 1px; opacity: 1;"/><path class="choroplethlocation" fill="rgb(255, 250, 205)" d="M628.1735482952755,133.31558116994393L626.3000203410959,134.5828390638494L623.4474530135026,137.0969163648897L622.5077846198722,139.80655771305055L620.6752770672163,145.09101811066057L620.0879394999537,147.42552358405328L620.1273104797368,147.73267459755562L621.9993324401538,148.8538510965277L622.341910164063,149.62226648519845L622.3759025946952,154.456936745828L622.2169126817989,155.81419569552327L622.968905567063,157.55103678728483L623.6047935046593,162.8050904536958L624.2557413798778,164.52091934677446L620.3885645404854,164.83610232700903L620.1969447627426,164.85381568221192L620.0383851337782,164.864501066525L615.923221321542,165.17774776906526L589.1604930292449,167.796455779584L575.655673251589,169.10810463248117L576.3687254410017,165.39116859936667L564.4160115202754,164.3490209159163L555.5885932260818,156.14866973871176L561.3850915028434,152.95209040743566L559.5297071877994,142.14084804447702L573.0391883747186,140.9171922556866L570.5958927805032,127.10536489250626L569.6016500414893,121.57930006704419L586.220434635465,119.970683587037L601.206506849239,118.83243915876028L615.8442642200088,115.92730547746669L618.1940447729904,112.22686366174821L627.1729230112697,111.5695332415371L627.1732098672246,111.56974838350288L629.462535527751,114.90516599685725L629.9517683585037,116.60349667669925L630.4015584954844,119.31062803525629L630.2281540708636,120.06821461163736L628.8666639958358,122.92429592467579L628.2748801612759,131.7965354617936Z" style="stroke: rgb(68, 68, 68); stroke-opacity: 1; stroke-width: 1px; opacity: 1;"/><path class="choroplethlocation" fill="rgb(255, 250, 205)" d="M572.7539818417522,223.7239724149049L558.9965853959764,223.61776399767496L544.6867760954245,223.567349063635L540.8484282794809,223.5378029003L525.2486277506127,219.09920899913232L529.8069122988819,210.05664873890737L528.6392651352473,201.9796456222266L541.4013431321787,206.14106495715896L556.3378609797754,205.17149183025003L563.9019656494419,206.62240924915704L569.6932288050293,204.28625435402455Z" style="stroke: rgb(68, 68, 68); stroke-opacity: 1; stroke-width: 1px; opacity: 1;"/><path class="choroplethlocation" fill="rgb(255, 250, 205)" d="M547.3495882089798,282.07829042704634L541.2110859202188,279.76917170564457L547.9381449140502,268.7544050428223L562.195889858822,267.16651390554216L561.5066467136511,264.93993798510746L595.2539589331167,260.9222334834835L594.839380364576,275.01353026053675L586.1495812146533,285.08540140023797L576.7035580541325,281.99503048619226L574.3797379650522,287.2873077085683L557.6865859648194,286.0138824116357Z" style="stroke: rgb(68, 68, 68); stroke-opacity: 1; stroke-width: 1px; opacity: 1;"/><path class="choroplethlocation" fill="rgb(255, 250, 205)" d="M492.8150440897154,231.10771640304847L492.3167752963901,218.73734021226937L503.0696424725645,206.19714529630437L496.53040241507927,204.15530461070102L502.5378115325381,198.783926858815L501.8013088688284,192.59465106607104L500.12972750676346,178.37957594456157L495.82695990014884,143.8327961793275L503.5276080042538,147.1717277781263L518.4877197541272,145.7597510550704L524.1211404206372,187.5985526169302L517.5166406334554,198.1298235680947L528.6392651352473,201.9796456222266L529.8069122988819,210.05664873890737L525.2486277506127,219.09920899913232L525.0042264772023,232.30792171754183L516.7198982192572,229.79527869627555L514.7179305113569,235.05413719992794L500.7866993570301,229.07175626451635L497.99910490317757,232.55727125617022Z" style="stroke: rgb(68, 68, 68); stroke-opacity: 1; stroke-width: 1px; opacity: 1;"/><path class="choroplethlocation" fill="rgb(255, 250, 205)" d="M410.80859204412957,141.22965010435155L413.8945884048661,136.5118736452646L415.7663235093282,136.17273819281263L418.7108998843943,136.18019644763535L421.48694838606895,135.4003785347645L422.59485779713594,134.91982309664172L424.5356534726939,133.60322597852564L427.8437480563618,129.6412432461034L433.0722715428042,126.99686162763828L436.2441812619757,125.86306346665924L437.873307942745,125.90996441525385L438.45390439507094,126.2000474994511L439.93443969130203,125.74867965472004L442.55594454737854,124.38934099935295L445.5312862235873,122.47063323230759L446.35140739809356,121.86515202590999L476.03640901497954,135.17720460200235L468.8820780766126,143.40114968148237L473.28230499383824,145.466942839304L469.0963594747792,153.09566181276614L464.73815695491726,152.83978630116826L453.6592779862177,159.47892394488053L447.74983017728994,159.1066566296604L447.03455485422853,165.7107978468989L451.608114482086,165.9665299305202L452.4834554278745,173.09748210857788L434.51666298874164,171.7970206379141L434.7378289298211,174.5849019477214L421.93709709299253,173.71802325259705L421.5831168448842,170.95560040877035L421.0259708668552,168.46267873439047L419.87402906674083,164.8323731995979L418.3775732650244,163.28492875193115L417.1697662677317,162.40048012958187L416.3927452004191,162.17393563935184L415.9986768326407,161.97901701812862L415.91448460993433,161.47379196790098L416.0407729439934,160.9263990923314L416.50390188286775,160.58963020150577L417.0091269330957,160.2106934853382L417.5565198086644,159.87385288052383L418.39858546370675,159.70546843511056L418.86171440258016,159.537012275709L419.4932277868681,159.5791083870622L420.00189510855154,159.74598683871272L420.5879418240184,160.33698181939826L421.8110956148884,160.47481610563455L422.4909442275431,160.16809537606423L423.363918611705,159.56899671465862L424.9670848285728,158.85092454603864L425.8809361862806,158.76924231293606L426.75864369369475,158.46130244555843L427.187636773959,158.10889990520127L427.3498538163458,157.04150889773655L426.96094885575155,155.58506950170113L426.7278066785641,155.06342194806666L426.68033201805946,154.68634979560466L426.6848499993457,154.03289193078263L426.3413399935845,153.50328412440467L425.84034606868875,153.31725803777726L424.13857311739105,153.49675815143564L423.05769988005625,152.8566390885071L419.9613767049496,152.02411139395917L419.3292896087536,152.37099195718838L418.78605614452727,152.52137619144332L418.2210216277427,152.52137619144332L417.7915982635465,152.49878628501028L417.3621748993503,152.36317513242238L417.0457727813093,152.15972254654662L417.04605963726334,151.69845817137775L417.18726448096777,151.10323206536123L416.9764970682474,150.70378514843196L416.0975704230264,150.12799353334685L415.6749598877541,149.9671390567446L415.0342671129157,149.83181476011214L414.87599433990624,149.51541264207026L414.78563471417306,149.15375899717355L414.8308145270401,148.56613457395633L415.01770118153155,147.52635345213275L414.76340337768386,146.68493322298946L414.4998544692968,146.52307475054613L410.4767714185224,145.70108901233334L410.4414881360926,144.50081198385124L409.9987259700027,143.5853829183925L410.2236927524824,142.7759471281979L410.6304544962557,141.94112458601285Z" style="stroke: rgb(68, 68, 68); stroke-opacity: 1; stroke-width: 1px; opacity: 1;"/><path class="choroplethlocation" fill="rgb(255, 250, 205)" d="M299.3540814002464,223.37773727757394L312.1819211247934,223.33399174448095L312.0800155468841,226.42393237459464L322.98061353973367,226.5187382676254L320.73646769207255,239.48419713644353L321.658351016512,246.02479975971437L329.68601490898385,246.14570954462351L329.39815495843595,252.81446506565953L317.276482880388,252.59064570699957L312.75513103628657,260.42131127257653L304.3454467261342,260.18035227062273L304.29739835372055,257.0829533856863L290.1439255484836,256.81366735820575L289.42778965755826,252.66974623651004L296.0192374988013,246.35776780914057L296.1174856632882,232.3425595740723Z" style="stroke: rgb(68, 68, 68); stroke-opacity: 1; stroke-width: 1px; opacity: 1;"/><path class="choroplethlocation" fill="rgb(255, 250, 205)" d="M444.614853162287,211.34412997762092L455.12102421741514,210.69074382678718L468.3881121226076,219.80695435338293L469.0021990076457,227.3931469315603L476.1763230068863,227.29855618049578L476.6787512115558,232.30204117047015L490.24732472514563,231.7078907742839L486.81122067168906,240.8512809025874L444.2163385272113,242.30434974115542L443.7683412399474,237.49090682117367L442.2544589389829,216.34854724944762L438.0664337142504,215.95419202571475L438.0477163632066,215.715527871399L438.1283946004676,215.54965341558955L438.01637735015413,215.43706245336716L438.06263287285105,215.3046067162809L438.0084888114004,215.11083551887668L438.1696301439564,215.07318567482116L438.35787936423264,214.97630007611906L438.25289008480996,214.87123908270814L438.321592085962,214.78926999365012L438.44214330092797,214.78604286415975L438.3434648525082,214.66993791649202L438.52447095992864,214.5754188794167L438.7949044112285,214.12957301181314L438.7831433170856,213.9265507098694L438.84761419290544,213.90797678680246L438.94170294605,213.96305313010635L438.9320932715676,214.06918983334754L439.20561042438004,214.2200760655228L439.4695179027101,214.2423791160022L439.47152589439366,214.16478458025358L439.58590970633276,214.11981990935283L439.48242642067186,214.01533262785142L439.3696203164844,214.02393830649225L439.4747530238841,213.9292041274507L439.3901305172449,213.87713977167095L439.22633576710837,213.90819192876825L439.3987361958864,213.75293114328315L439.3034283049359,213.62707309315556L439.1488846593369,213.68150401056118L439.26914901834795,213.52782093282713L439.2680015945291,213.31404153258154L439.41644955109024,213.40648086398596L439.5721406205062,213.32171492937005L439.7278316899241,213.12672459415853L439.8808693417604,212.994340571061L439.6664445156168,212.93610881225504L439.89671813325765,212.86346254172577L439.8802239158625,212.8047287849995L439.6572651250663,212.7857962919893L439.55700896889584,212.8898532895587L439.3902022312348,212.72569996947777L439.31368340531617,212.81283246572048L439.3862579618566,212.89422784286853L439.1513946489405,212.97361522833307L439.0644055806765,212.8946581268001L438.90025226059515,212.90484151319197L438.8685546775997,212.80953362224045L438.65950840060617,212.83169324474238L438.5230366801549,212.69213782277757L438.47290860206965,212.55839123389524L438.2988587515519,212.4260072107977L438.08579649119304,212.53623161139376L438.19200490842354,212.6507588513109L438.0654297184095,212.73487936002812L437.9401453801904,212.72240112599866L437.98095063974733,212.61038387568533L437.92824085807047,212.47513129304116L437.96775526583156,212.40607072194598L438.2772728409597,212.24535967332122L438.3393054411649,212.18425935496862L438.27340028557137,212.06765240938012L438.22750333281834,211.79858152386532L438.37860470696097,211.41032198916946L438.2589857738478,211.32032093338012L437.9602970110089,211.19467802521876L437.98295863143096,211.00657223291955L438.1352074293923,210.88838757958L438.1530642125723,210.7981713818249L437.902065252204,210.6966243738584L437.8123510523696,210.57679029878L437.87058281117453,210.47323529913047L437.67774389562214,210.47337872710796L437.787466298298,210.25866704501004L437.5586986744189,210.04832991622152L437.28288667396885,210.19598901890686L437.144263533857,210.1211196147283L437.03088371775874,210.19921614839723L436.89426856932954,210.0969520005442L436.8439253492783,210.03269626668998L437.05641389772825,209.62091454370784L436.9779587941159,209.52582179472302L436.9298387077134,209.35851305914002L436.7894944318737,209.34947709656672L436.85877014493474,209.22125248481234L437.2556353582716,209.3091738349308L437.7866774444231,209.7779681789102L438.22061878990553,209.5988983491843L439.2302800364847,209.56368678074432L439.4999246339088,210.15224348581387L441.13650956950073,209.83663022164774L441.5183865592042,210.8295103948767Z" style="stroke: rgb(68, 68, 68); stroke-opacity: 1; stroke-width: 1px; opacity: 1;"/><path class="choroplethlocation" fill="rgb(255, 250, 205)" d="M558.9965853959764,223.61776399767496L572.7539818417522,223.7239724149049L573.0159530423877,225.4132671321736L573.0757625089443,225.66498323242877L573.7281446639366,229.8612555658583L560.8604319616846,237.09145990424486L547.1202468731926,238.78068290752435L533.251693744968,234.72317714218525L533.1143614566529,234.69571068452206L529.3966365696624,233.59389696249218L525.0042264772023,232.30792171754183L525.2486277506127,219.09920899913232L540.8484282794809,223.5378029003L544.6867760954245,223.567349063635Z" style="stroke: rgb(68, 68, 68); stroke-opacity: 1; stroke-width: 1px; opacity: 1;"/><path class="choroplethlocation" fill="rgb(255, 250, 205)" d="M597.3622067722346,395.5920682557812L601.2161882377103,384.34537855357803L601.195391180993,384.0813276472704L601.1328565828669,383.67513961540544L597.9045796685971,381.6777616027812L596.3504658199828,380.22038992489297L596.3597886385121,380.213720523946L597.3830755429399,378.7691139360427L597.3566847951065,378.34628825880463L599.2302127492861,376.4772065719235L599.3449551311683,376.1975220160839L599.0580991764612,375.5807817134646L599.1369845640064,375.5018963259199L600.2773086979548,375.2437976806723L603.009683380526,376.1832509323376L603.359719359257,376.0606917256887L604.4225206714459,375.68842441046763L604.5300916544611,374.6629143723908L605.4838877038611,373.63023293544666L606.0074715351899,373.2287063128456L606.4950549442029,373.1427212404219L607.1692381517526,373.2502205094488L608.2952194879655,372.8988219649332L608.7757032120998,372.5761090158876L610.582967440742,371.9952257076061L610.8554805977126,371.96654011213514L612.1535755067505,372.4757094317397L614.2190100946287,372.07411109515033L614.5250853983005,372.18003265642574L615.6049546397944,371.7967213869488L615.8114909271835,371.46432704943254L618.8872321875388,377.8256447010117L619.8342154080149,382.8239662838014L620.9966274504764,388.944540075393L621.1034095796158,389.5296545090064L621.0066674088916,389.86104485068154L620.9372482678517,390.5768221716635L621.0648991676965,393.90592895401414L619.1599604864772,394.3626036339074L611.1277786127191,395.78239718172927L609.5930275410484,395.56725521569933L607.6495784479089,395.4955412270224L605.082145939294,395.8468680575493L601.1763152600054,395.7890665826758L597.3297203353633,395.7321256756668Z" style="stroke: rgb(68, 68, 68); stroke-opacity: 1; stroke-width: 1px; opacity: 1;"/><path class="choroplethlocation" fill="rgb(255, 250, 205)" d="M233.45086208403913,220.33871357942098L225.09926610471464,217.69841965831029L220.480741805957,217.51181985977337L219.14047907157837,217.70265078364173L219.11896487497424,217.5178438348221L216.98576056779766,217.10498640201013L216.42137147691102,215.97627993422748L217.10279779731823,213.40282345056312L218.01363716750066,212.59962677738395L218.1355509482514,212.1980284407946L216.98576056779766,205.36590845355295L216.12017272446943,203.67847829998982L219.75040654527413,202.8729867791726L223.19138714995896,202.33025531286785L226.1389755125505,201.4696874487472L231.25949773204476,200.20027813518027L232.91616258446618,199.66242322010476L233.07393335955382,199.72696580991396L237.1115743500306,199.04568291748456L239.30609411752732,198.5078280024095L242.91345117594312,198.0273442782759L247.39629260812532,196.85345799762672L253.63189563755432,195.9988423945665L257.8298891067113,195.62435194569616L258.28391036902417,195.648591273869L258.9599581402785,195.9076939149577L259.5047693122556,195.8775740397141L259.43829044475217,200.78689856255596L259.869506658666,206.99395942449155L259.5045541702906,213.27631997453773L259.5905392427136,215.93726752438715L259.5802841423324,216.13885554655735L240.2779620920741,216.46042107178437Z" style="stroke: rgb(68, 68, 68); stroke-opacity: 1; stroke-width: 1px; opacity: 1;"/><path class="choroplethlocation" fill="rgb(255, 250, 205)" d="M490.24732472514563,231.7078907742839L476.6787512115558,232.30204117047015L476.1763230068863,227.29855618049578L469.0021990076457,227.3931469315603L468.3881121226076,219.80695435338293L455.12102421741514,210.69074382678718L444.614853162287,211.34412997762092L444.43693075638,199.19154917045353L449.6095890456431,187.82079426783957L453.79868998020453,188.76670177848519L469.7703275403619,192.3977244531652L500.12972750676346,178.37957594456157L501.8013088688284,192.59465106607104L502.5378115325381,198.783926858815L496.53040241507927,204.15530461070102L503.0696424725645,206.19714529630437L492.3167752963901,218.73734021226937L492.8150440897154,231.10771640304847L490.6215283180604,231.25860263522418Z" style="stroke: rgb(68, 68, 68); stroke-opacity: 1; stroke-width: 1px; opacity: 1;"/><path class="choroplethlocation" fill="rgb(255, 250, 205)" d="M366.6533569340236,239.40861059237795L363.2660183928666,239.4389456095878L342.15499783419233,239.62074057088375L338.275127618805,246.3187553993007L338.3182277259995,252.8804419352423L329.39815495843595,252.81446506565953L329.68601490898385,246.14570954462351L321.658351016512,246.02479975971437L320.73646769207255,239.48419713644353L322.98061353973367,226.5187382676254L329.9985444716365,226.57603774457766L329.79050219048565,220.02137917952587L337.9615940603106,220.011912933021L354.96806447707365,219.6368487722416L355.0353321984511,221.60633004327065L367.1887735734834,221.55656053512848L367.2300808309603,229.45492410601628Z" style="stroke: rgb(68, 68, 68); stroke-opacity: 1; stroke-width: 1px; opacity: 1;"/><path class="choroplethlocation" fill="rgb(255, 250, 205)" d="M293.1986546101575,201.88605886700407L293.19449519881425,202.06426812886548L293.08211937855776,212.96350355592995L263.4222176577103,213.1311708614562L259.5045541702906,213.27631997453773L259.869506658666,206.99395942449155L259.43829044475217,200.78689856255596L259.5047693122556,195.8775740397141L266.3377498673616,195.49942617742136L267.1631778770308,195.6799302869208L274.9133086333231,195.90382135956952L276.1347412884653,196.03261968323295L282.47526188332813,195.57078159615503L285.39301722662987,195.56231934549078L291.1946789105764,196.21154608498136L293.2039614453196,196.30348341846457Z" style="stroke: rgb(68, 68, 68); stroke-opacity: 1; stroke-width: 1px; opacity: 1;"/><path class="choroplethlocation" fill="rgb(255, 250, 205)" d="M401.9486873130646,206.18380649441042L392.9279281053977,204.3155853753933L392.06040398437574,192.44211541215554L392.77869129496077,192.13826324213233L395.9532544317138,190.33372414505993L398.17753550451135,189.49022421024483L398.8811214474188,188.8937072524318L399.31979591615345,188.7130597149553L399.96694294997275,188.85713311820655L401.39376446868334,188.41085696667187L402.43103560090367,187.1608104300476L404.94281805430614,185.982406168112L406.3693527170637,185.11667489680667L406.867406368423,184.98228288202654L409.86411881325705,184.7913085301807L411.53914244677935,185.6794862799411L412.5848041156743,185.7841169894209L415.00931064485604,185.7201481115212L417.6802981531208,184.86976363379245L419.40315501709074,184.54504269306472L419.9146908983207,184.27747780131176L420.6851142786755,183.40479027310494L421.26635615690026,182.33051472272746L421.7238914046576,181.26613570278778L422.0347715455705,179.43915012725984L422.21706850478677,175.90314848757725L421.93709709299253,173.71802325259705L434.7378289298211,174.5849019477214L434.51666298874164,171.7970206379141L452.4834554278745,173.09748210857788L453.79868998020453,188.76670177848519L449.6095890456431,187.82079426783957L444.43693075638,199.19154917045353L444.614853162287,211.34412997762092L441.5183865592042,210.8295103948767L441.13650956950073,209.83663022164774L439.4999246339088,210.15224348581387L439.2302800364847,209.56368678074432L438.22061878990553,209.5988983491843L437.7866774444231,209.7779681789102L437.2556353582716,209.3091738349308L436.85877014493474,209.22125248481234L436.7894944318737,209.34947709656672L421.761828104667,203.02222358960853L417.7453427408505,205.4703240210656Z" style="stroke: rgb(68, 68, 68); stroke-opacity: 1; stroke-width: 1px; opacity: 1;"/><path class="choroplethlocation" fill="rgb(255, 250, 205)" d="M528.7134891135283,257.0806585380492L509.8268930556277,260.6886610223628L493.8850885147601,268.5168883123247L478.24555843616577,271.68506890408435L481.14380757454603,264.7551310362878L479.0240137832503,259.8546990480413L484.353869135693,253.47466404541774L486.81122067168906,240.8512809025874L490.24732472514563,231.7078907742839L490.6215283180604,231.25860263522418L492.8150440897154,231.10771640304847L497.99910490317757,232.55727125617022L500.7866993570301,229.07175626451635L514.7179305113569,235.05413719992794L516.7198982192572,229.79527869627555L525.0042264772023,232.30792171754183L529.3966365696624,233.59389696249218L533.1143614566529,234.69571068452206L533.251693744968,234.72317714218525L531.873781166533,240.37768172136657L534.5186647829203,249.27279802087105Z" style="stroke: rgb(68, 68, 68); stroke-opacity: 1; stroke-width: 1px; opacity: 1;"/><path class="choroplethlocation" fill="rgb(255, 250, 205)" d="M580.9927000028985,342.8581906782001L581.0787567893105,342.6430487121693L581.0714419624658,334.45245063742504L584.4929880762209,330.91164416050106L613.4444990169197,328.1208942911462L613.1646710331033,331.5273804672793L613.1585036300775,331.5793731090698L613.1516908011527,331.64448941078854L613.143156836501,331.72688878377767L613.143156836501,331.7639649159237L613.1359854376324,331.7998219102624L613.0355858534849,333.14338348812043L613.0292750224819,333.2473687717011L613.0272670307993,333.28128948834546L613.0200239179426,333.4373391277063L613.0142150848596,333.5613326141274L612.949529067073,334.2954687162119L612.9136720727352,334.66866831328525L612.8990424190447,334.8110205808084L612.4710533346222,338.9078256119428L612.3931002289298,339.65386623614677Z" style="stroke: rgb(68, 68, 68); stroke-opacity: 1; stroke-width: 1px; opacity: 1;"/><path class="choroplethlocation" fill="rgb(255, 250, 205)" d="M589.1442139538149,387.7900882856752L588.7781857556095,387.85886200081677L587.6627463757318,388.57679074145926L587.1663421461112,388.70107108383536L586.5977936438823,387.75272529757467L586.0504007683126,387.1951490356132L585.3752135649213,386.796562686548L585.2036737040062,386.00397968369316L584.819430152677,385.44511256993565L584.2373994205773,385.2965928993858L583.5399808806958,384.75185344139754L582.9900780155217,384.6244893975081L582.5270925046252,384.78233188658487L582.4118481248223,384.74052263118665L582.5015623246567,384.35276509441155L582.7342025039242,384.1627230244185L582.9765957856509,383.7483595978447L583.763226527446,382.82145629419756L583.9860418902651,382.60882431777145L584.2949857534834,382.43412904135494L584.3915127822426,382.2971553229818L584.1845462109225,382.23935384810875L584.1613825925787,382.09198160137794L584.3994013209972,381.76123668560103L584.9092877804884,381.93736624179155L585.7450426045277,381.2317723072015L586.1584737492487,380.91716303887597L586.0182729013861,380.5448240096671L586.9288254156136,380.80701035226866L587.4741385855116,380.96076514399147L587.5902435331794,380.97761793133077L587.638148477616,381.17461625822534L588.000375834421,381.2303380274275L588.9954074273107,381.2046644194811L589.3027018687902,380.7260452590531L589.5897729654641,380.4662254780769L591.8958079853526,380.04411694072587L593.2976013220155,379.9067846524099L594.5596240947486,380.2794105375742L595.0931044565139,380.2090591146821L595.4226302344844,380.636115917252L595.8053677920517,380.6097251694191L596.3504658199828,380.22038992489297L597.9045796685971,381.6777616027812L601.1328565828669,383.67513961540544L601.195391180993,384.0813276472704L601.2161882377103,384.34537855357803L597.3622067722346,395.5920682557812L597.4320561972054,395.2906543613726L595.8845400355509,395.27638327762634L593.9839759076408,395.64212461987745L593.5964335128314,395.71670716810104L591.6189919890599,396.24868153610487L588.4278629209235,397.4185518333884L584.440134866566,398.5453937374655L584.4434337100445,397.8206521678985L584.5680009083767,397.4631579343454L584.3559426438587,397.12983131497595L584.1471115088331,397.0404039710961L590.5114411479367,395.42626551396006L589.7485477363936,390.694146257139L590.0949263017022,390.03817840271313L589.3514673810907,388.7390077838454Z" style="stroke: rgb(68, 68, 68); stroke-opacity: 1; stroke-width: 1px; opacity: 1;"/><path class="choroplethlocation" fill="rgb(255, 250, 205)" d="M569.3862212195039,399.26360933406295L569.0800742018441,399.31172942046487L568.207888671557,399.8638554192871L566.979643187491,400.37926385590663L566.6805241407201,400.30532673358084L565.4064534178899,400.9439398027466L564.6497991233617,401.10751941091894L563.981926746816,401.59840166341064L563.0171584571481,401.6919167046449L562.052748737423,402.06454258980966L561.8017497770556,402.0215141966037L561.4862082268777,401.61991586001386L561.3786372438624,401.21831752342405L561.6214608095221,400.78860730327324L562.3252618943956,400.2860356706269L562.4081632653051,399.5423616080493L561.972429070105,398.67297292332114L563.3210823411601,397.83786352518064L564.1820087752233,397.8414492246152L564.6201812460389,397.41754783754686L565.1102029306666,395.3784322835131L565.6289819247542,394.82616285671384L565.7303137907536,394.48415884471433L565.6809028525561,393.4541308253506L565.3296477360174,393.401277615696L565.2709856932796,393.21474953114785L565.3593373273292,392.35841279235956L566.1610997207346,391.5930093912125L566.8215138424595,391.3491818297116L567.2593994573183,391.37872799304705L567.5389405851806,391.58727227211875L568.7734251862616,391.8250041445817L571.1247117330051,391.58727227211875L573.5415448654,391.1283027445879L574.3017848593607,391.1641597389262L574.7452641653384,391.65791055096497L574.8960069695363,392.9022199684946L575.4161485294087,393.75317815813287L575.9339235276555,394.3499102579117L575.4994084702622,395.07967180668584L574.8539825721716,395.75378330024705L573.2323141462259,397.01874634651585L571.7496991443231,398.42111339508847L571.6698097609371,398.37127217295847L571.0181447458316,398.72353128533905L569.9016296561241,399.6282032524955L569.6872765439693,399.365586625961Z" style="stroke: rgb(68, 68, 68); stroke-opacity: 1; stroke-width: 1px; opacity: 1;"/><path class="choroplethlocation" fill="rgb(255, 250, 205)" d="M602.9244154479898,238.04217225213188L602.0925331793396,238.60154136381016L599.8334708220341,236.75132045595092L599.6326716537392,235.36006907562205L593.4146385515361,238.35828751421877L587.2064302657813,233.18003553383915L573.0757625089443,225.66498323242877L573.0159530423877,225.4132671321736L572.7539818417522,223.7239724149049L569.6932288050293,204.28625435402455L568.2623195889626,195.85605984311087L588.0525836181779,193.95499371727965L591.5183772629454,204.30224657349936L608.7907631497221,200.54715869840948L610.3410761569352,215.28961849264806L605.8861314663491,226.71042975935825L602.361604064854,230.2165983797513L604.1506529403723,235.48191114238443L604.0288108736105,236.6294066752007L603.2404589960878,237.14474339783146L603.1609998966336,237.54024604538336Z" style="stroke: rgb(68, 68, 68); stroke-opacity: 1; stroke-width: 1px; opacity: 1;"/><path class="choroplethlocation" fill="rgb(255, 250, 205)" d="M566.8155615813995,241.86438442062354L560.2163686293788,242.9909394687461L560.8604319616846,237.09145990424486L573.7281446639366,229.8612555658583L573.0757625089443,225.66498323242877L587.2064302657813,233.18003553383915L593.4146385515361,238.35828751421877L593.397857478186,238.63460151259005Z" style="stroke: rgb(68, 68, 68); stroke-opacity: 1; stroke-width: 1px; opacity: 1;"/><path class="choroplethlocation" fill="rgb(255, 250, 205)" d="M367.2300808309603,229.45492410601628L367.1887735734834,221.55656053512848L385.12587642130256,220.77645576630357L383.4811878049919,224.63101094368767L383.7168399717838,242.0138363730257L388.51529466813025,249.50350192244468L394.2921433119951,254.77785064765112L386.35584304109733,255.0015982923219L372.08899041976304,255.37831187484153L372.10670377496683,247.15142652182567L366.6533569340236,239.40861059237795Z" style="stroke: rgb(68, 68, 68); stroke-opacity: 1; stroke-width: 1px; opacity: 1;"/><path class="choroplethlocation" fill="rgb(255, 250, 205)" d="M527.7525216652598,78.64793588769453L528.0876411343463,82.4418927446477L533.7125278362038,82.46986120023166L542.0449044665636,138.54912463559276L541.365557851829,143.66849943126908L518.4877197541272,145.7597510550704L503.5276080042538,147.1717277781263L495.82695990014884,143.8327961793275L476.03640901497954,135.17720460200235L446.35140739809356,121.86515202590999L449.16474717388155,119.78817148585495L450.1007581540905,116.96264033199213L453.13304073730745,113.76125616347463L458.07477998303176,110.08247197233686L472.80375754739856,99.65783972233521L476.9686908677762,96.99617503259879L484.0956270624689,92.95753004628068L486.37390876873917,91.5046763496789L485.9683661627719,90.77491480090521L487.7249286014199,89.88974903866801L492.50466594672247,87.85866545136605L494.4533501610351,87.46000738831253L497.9992483311546,86.48190029675061L503.3808094694333,84.13161774584842L506.08449855653436,82.90394597369186L507.660054887761,82.05528263169163L508.0544818254833,81.51606515083131L508.08209171112446,81.1060762775669L508.54923663336416,80.68934628936586L510.00452860557976,80.26243291477385L520.4665238436836,77.9354574101917L522.2560030031331,78.02717960170958Z" style="stroke: rgb(68, 68, 68); stroke-opacity: 1; stroke-width: 1px; opacity: 1;"/><path class="choroplethlocation" fill="rgb(255, 250, 205)" d="M713.6893243767562,358.442070701582L713.9670726549018,358.1735735279767L714.0852573082411,357.67100189532994L717.1328866850345,358.64738785116424L717.3508972106133,359.191266741288L716.934382364379,361.7477270096351L716.307888959299,362.05408916926217L716.2011068301587,361.99212828304553L716.205696525434,360.48900308038174L715.7742651695551,359.7259662408619L715.5413381343335,359.5539243820258L714.5258680546713,359.2464147985802L713.1867527441098,359.2980488704279L712.9939855425481,359.1603580121682L712.9216978419618,358.9136618911202L713.0788949051405,358.6967987893622ZM727.2190289084838,345.36947113368115L728.4210270726944,345.1222730147124L727.8145418704551,345.8066396086542L727.0248991411356,346.11307348227L725.8539531340225,346.49588275382575L724.6830071269085,346.92372841027145L723.5505715317147,347.53695472744675L722.9952184034023,347.7939776628632L720.5293329027538,348.014354750067L720.6647289133743,347.6081667182025L721.0605901308703,347.06084555662164L721.4920214867501,346.49401819012064L721.8144475798409,346.2702705454494L722.6788879993494,346.31573721427094L723.8087418909507,345.75271068916936L724.6016117497597,345.8272932373934L726.5520170998009,345.4825640938243ZM618.8872321875388,377.8256447010117L615.8114909271835,371.46432704943254L615.8415390884392,371.4159201070752L616.1912882112154,370.08053392392685L616.6502577387464,369.77216377261675L616.6909195703263,369.79597281685756L617.0271147492427,369.9928994297634L617.1522556594839,370.0661911261909L617.4358844846995,370.1551881861383L618.2033675915179,370.3960754741038L618.4260395263591,370.4191673784576L618.7186326001602,370.44943068167913L619.5431283279765,370.53477032820456L620.0822023808587,370.59056381139544L620.142800701292,370.59687464239914L620.6305275382821,370.9626159846498L620.6447269080397,371.07692808260026L620.7041778046523,371.5571966647685L622.3365316149111,371.6483451443769L622.5596338336852,371.2996717314304L622.5238485533355,370.07336252505866L622.7103049238949,369.2271374586735L622.7891903114391,369.1410806722615L623.284016833309,369.1339092733938L624.6035542249602,370.4032468729715L625.213194842701,370.82635940616456L626.1598194932333,371.18492934954793L626.6761602117053,371.2853289336949L626.7765597958537,371.1419009563415L627.6945705649039,370.9769587823853L630.2977166398796,371.3427001246364L630.2978600678575,371.3427001246364L635.0147759590791,372.73223036923673L640.7727638239212,371.0270868604707L640.9701207207598,370.584181266403L641.0826399689942,369.09482514956517L641.3614639569696,368.35358936260263L643.5427883505488,367.94051678782444L645.6071472285962,367.86019712050665L648.3237448336591,368.63994331938875L648.5572455807904,368.4740688635793L651.7495220727455,368.33064088622586L654.6731579631183,368.35588421023976L657.6370254011381,368.61979168857033L659.4717560874435,368.58422155018707L663.9318641852138,368.09427157954724L667.657621038936,368.4155502488193L668.6668520015832,367.6969760822785L671.9374401691726,366.9610471304777L673.7363138611403,366.66128265780935L675.4806132077235,366.82479055199246L677.6065026880563,366.606780026415L681.1955726793592,366.1011246922553L682.6241870477893,365.2462222332406L682.942023445604,364.820527996455L683.7395547136781,364.50498644627805L685.7694191631725,363.22790373592306L688.942189450207,362.1837480607901L690.1274782550556,361.12238102837455L691.2416267831376,359.7523569886948L693.1992035320457,359.62047496351806L694.7012530248791,359.02151973008995L697.6352874436101,356.3445799607657L699.2657766901641,356.0302575483952L700.052479145948,355.8405023343571L702.2951189998455,354.7497325665845L703.1786353403427,354.545491126833L703.5940027627582,354.81169345280114L703.9451861653081,354.8736543390178L705.5768228356801,354.3665647250846L706.088645572866,354.49041478352956L706.1230682874318,354.70957273292515L704.9870469928028,356.0933658584313L704.15860699561,356.7141221444167L701.6306888947553,357.87646247288876L701.6543545110192,356.4576012069206L701.1999029647743,356.0430226383801L700.7443039947116,355.99239256237433L700.3561878879932,356.0936527143858L699.7477664080601,356.45021466608614L699.1280858319042,357.30275056347546L699.1348269468399,358.26063431022976L700.4213041897118,359.5699883154898L701.821161248681,360.1162337672404L703.0650403822793,360.16213071999346L703.3278004367907,360.42603819832357L702.8699783330784,361.06056357013495L703.5466715302316,362.2324418591015L704.4891367694214,362.91142990389244L705.8705633333008,362.717443564522L706.7230992306893,362.7472048698228L707.5756351280779,363.015702043429L708.6955924892427,363.6135098530376L709.5056737053346,363.59170880047986L710.0289706807087,363.37369827490284L710.2997627019515,363.1717516827889L710.6302207617748,362.61869340211433L711.4896412020762,362.11382692182997L711.6709341654506,362.06792996907734L712.1380073737023,362.20906309879274L713.3255910261885,363.0821809109316L713.4804932417305,363.6845784158163L713.3175590594568,364.21354079629555L714.826493095204,365.9427084912686L715.3543080518641,366.3523387945902L715.8454054463225,366.53700231543235L716.3261760264108,366.5484765536212L717.2166486238098,366.18244835541464L717.4381014208441,365.68217157040635L717.4913849144309,365.46645589246646L717.708893442086,365.27598353854137L718.7650253533291,365.2509553564928L719.0170283095383,365.58464054580554L719.0786306258125,365.5771822909833L719.2139549224449,365.55258439286763L719.472340423647,365.46645589246646L719.6199995263323,365.2326682893804L719.4749221272405,364.79922894181846L719.4477425255312,364.45751178577393L719.7675869150295,364.3098526830886L720.6049194468187,364.439368146639L722.0950644175322,363.89513068657106L723.2247748811556,363.0832566207614L725.5353995963201,362.5021581705141L725.9629583968106,362.0356586741723L726.0148076106236,361.63398862359463L725.9281771123026,361.3368775685067L726.0693102420189,360.81938942621537L727.6000453303234,360.3764838321481L728.9529297267088,360.15388361129544L730.3964606047833,360.1309351349187L730.6661052022074,360.3787786797857L731.0930185767991,360.49925818076235L732.5262226405034,360.5462308433457L732.891103414891,360.41198225654307L733.3913801998989,360.65294125849687L733.4831741054059,360.8652146649797L732.2141233617829,362.179014937537L730.0751819355113,363.04761476838985L727.7837048553243,363.47675127663115L721.0663989639534,365.9346048105481L714.964183953463,367.92997483148883L694.7837241118577,375.49042208773153L689.4664187074347,377.2058206968791L682.0479651487708,379.3205945089662L669.7298684557371,382.6309122262837L669.1630410892368,382.88334546642545L668.8715954392546,382.82597427548444L668.0844626995396,383.0256260199603L661.2707732073873,385.0784389458313L656.9643481873503,386.4897702429889L650.558065864871,388.90158339617574L647.5161018931818,389.85394516580254L641.0401135737077,391.35133324937215L636.5096540530457,392.398859481973L634.3080346006701,392.8136531924788L632.661051136721,393.07354468744325L632.4898698457498,393.07634153300205L629.4848385782291,393.125178759291L629.245027000094,392.9978147154011L628.5625249698587,392.04667208358114L626.252760822558,392.4263976536249L623.3482008531748,393.35860779243376L621.0648991676965,393.90592895401414L620.9372482678517,390.5768221716635L621.0066674088916,389.86104485068154L621.1034095796158,389.5296545090064L620.9966274504764,388.944540075393L619.8342154080149,382.8239662838014Z" style="stroke: rgb(68, 68, 68); stroke-opacity: 1; stroke-width: 1px; opacity: 1;"/><path class="choroplethlocation" fill="rgb(255, 250, 205)" d="M425.8800039044278,294.29204326655463L411.6660762067363,294.33270509813474L411.2231706126694,294.32811540285957L403.1727733857874,294.2905372727928L402.8583075454402,294.28401129982285L396.32631060080985,294.20340477655054L397.70859773255404,274.0083152812558L406.46846144941355,275.35503227461504L406.5325737552913,271.38265101383513L408.0138261914093,271.3725393414311L418.3765692691835,272.93827085621024L418.1463673655307,264.98576322387225L426.97995306275124,264.7871871892262L430.4973090653777,277.684374340824L428.13799055190253,283.2118734460587L428.34789739675904,286.1508561300079L428.7255432611312,294.29598753593245L427.44501827932015,294.28910299301924L426.90680479430097,294.28910299301924Z" style="stroke: rgb(68, 68, 68); stroke-opacity: 1; stroke-width: 1px; opacity: 1;"/><path class="choroplethlocation" fill="rgb(255, 250, 205)" d="M418.1463673655307,264.98576322387225L418.3765692691835,272.93827085621024L408.0138261914093,271.3725393414311L406.5325737552913,271.38265101383513L406.46846144941355,275.35503227461504L397.70859773255404,274.0083152812558L396.0411040678425,273.9917493498706L391.90306349321827,273.92957332168817L386.7322697676617,273.82530118215254L386.35584304109733,255.0015982923219L394.2921433119951,254.77785064765112L388.51529466813025,249.50350192244468L417.2696638539574,249.4941073899281Z" style="stroke: rgb(68, 68, 68); stroke-opacity: 1; stroke-width: 1px; opacity: 1;"/><path class="choroplethlocation" fill="rgb(255, 250, 205)" d="M596.4404668757721,374.0820310641093L596.4476382746399,374.14657365391895L596.4476382746399,374.18960204712494L596.4476382746399,374.28283023240465L596.5050094655809,374.4549438052286L596.4548096735076,374.5266577939051L596.1751251176684,374.58402898484655L595.8595835674912,374.37605841768436L595.8667549663589,374.2326304403309L596.0388685391839,374.2039448448604L596.0747255335208,373.99597427769777L596.1966393142716,373.93143168788856L596.3615814882279,373.9888028788296L596.4332954769053,374.03900267090376ZM614.5524801419747,351.69758520850337L607.3961412119261,354.9557668560519L606.1235047688687,355.5352158845608L605.5842872880086,355.7809080097668L599.266069743624,358.7067670337883L601.6686317922715,361.67572616500365L602.1778011118759,362.2923947536351L602.6941418303479,362.9306492528576L603.3754964367654,363.7697029203755L604.4584493797727,365.0103549244827L604.5086491718469,365.08924031202696L604.3175313920232,366.9915255756655L604.4153492725773,367.39125934854974L604.1284933178712,368.1943843077397L603.9778939416503,368.3521550828291L603.8057803688254,368.28044109415214L602.8303984088342,368.59598264433L602.4574856677152,369.5856356880681L602.2280009039491,369.85814884504L601.4032183201788,370.2597471816298L599.6989353792766,370.80197665001424L598.9792137889169,371.30669970232066L597.1862923580102,372.1959531619118L595.424853368133,374.14313138246234L595.2665805951235,374.45917493056095L593.7430886196757,374.0672579824427L593.6279159538609,374.04603064179446L592.4196069586463,373.73063251959366L592.4284994932418,373.77014692735474L592.39285764087,373.7869997146936L592.3971604801912,373.82629898048845L592.3620206257393,373.82622726650015L585.6310890765196,371.838960926279L587.3469179695988,366.12909314783974L587.6767306035233,363.2318480053L587.2952121837628,360.9126176114951L587.2823036658011,360.0191330265716L587.8345013786119,356.3833055146515L587.2463749574744,354.88448315130745L586.2495505148688,354.13865766906974L584.6574282522562,351.2271414427837L583.4753665768981,349.9286162498147L580.9927000028985,342.8581906782001L612.3931002289298,339.65386623614677L611.9461069375086,344.7421888747258L616.8407300926722,350.6702106067205L614.9203729038875,351.5269059154525Z" style="stroke: rgb(68, 68, 68); stroke-opacity: 1; stroke-width: 1px; opacity: 1;"/><path class="choroplethlocation" fill="rgb(255, 250, 205)" d="M338.3182277259995,252.8804419352423L338.275127618805,246.3187553993007L342.15499783419233,239.62074057088375L363.2660183928666,239.4389456095878L366.6533569340236,239.40861059237795L372.10670377496683,247.15142652182567L372.08899041976304,255.37831187484153L372.5042861281906,261.0066408481557L356.91380841784985,259.5209421447403L354.28965014419094,252.8445132269153Z" style="stroke: rgb(68, 68, 68); stroke-opacity: 1; stroke-width: 1px; opacity: 1;"/></g></g></g><g class="layer frontplot"><g class="scatterlayer"/></g></g></g><g class="funnelarealayer"/><g class="pielayer"/><g class="iciclelayer"/><g class="treemaplayer"/><g class="sunburstlayer"/><g class="glimages"/><defs id="topdefs-4449b1"><g class="clips"/></defs><g class="layer-above"><g class="imagelayer"/><g class="shapelayer"/></g><g class="infolayer"><g class="g-gtitle"/></g></svg>